# AST/ASF file generated using VICON BodyLanguage
# -----------------------------------------------
:version 1.10
:name VICON
:units
  mass 1.0
  length 0.45
  angle deg
:documentation
   .ast/.asf automatically generated from VICON data using
   VICON BodyBuilder and BodyLanguage model FoxedUp or BRILLIANT.MOD
:root
   order TX TY TZ RX RY RZ
   axis XYZ
   position 0 0 0  
   orientation 0 0 0 
:bonedata
  begin
     id 1 
     name lhipjoint
     direction 0.682418 -0.694059 0.22932 
     length 2.25561 
     axis 0 0 0  XYZ
  end
  begin
     id 2 
     name lfemur
     direction 0.34202 -0.939693 0  
     length 6.96448  
     axis 0 0 20  XYZ
    dof rx ry rz
    limits (-160.0 20.0)
           (-70.0 70.0)
           (-60.0 70.0)
  end
  begin
     id 3 
     name ltibia
     direction 0.34202 -0.939693 0   
     length 6.88553   
     axis 0 0 20   XYZ
    dof rx
    limits (-10.0 170.0)
  end
  begin
     id 4 
     name lfoot
     direction 0.0723587 -0.198804 0.977364   
     length 1.88518   
     axis -90 7.62852e-016 20   XYZ
    dof rx rz
    limits (-45.0 90.0)
           (-70.0 20.0)
  end
  begin
     id 5 
     name ltoes
     direction 1.53558e-011 -4.21962e-011 1   
     length 0.952124   
     axis -90 7.62852e-016 20   XYZ
    dof rx
    limits (-90.0 20.0)
  end
  begin
     id 6 
     name rhipjoint
     direction -0.657603 -0.71533 0.236348   
     length 2.18854  
     axis 0 0 0  XYZ 
  end
  begin
     id 7 
     name rfemur
     direction -0.34202 -0.939693 0   
     length 6.86686   
     axis 0 0 -20   XYZ
    dof rx ry rz
    limits (-160.0 20.0)
           (-70.0 70.0)
           (-70.0 60.0)
  end
  begin
     id 8 
     name rtibia
     direction -0.34202 -0.939693 0   
     length 6.59503   
     axis 0 0 -20   XYZ
    dof rx
    limits (-10.0 170.0)
 end
 begin
     id 9 
     name rfoot
     direction -0.101977 -0.280179 0.954516   
     length 1.93723  
     axis -90 -7.62852e-016 -20   XYZ
    dof rx rz
    limits (-45.0 90.0)
           (-20.0 70.0)
  end
  begin
     id 10 
     name rtoes
     direction -1.53564e-011 -4.21897e-011 1   
     length 0.970315   
     axis -90 -7.62852e-016 -20   XYZ
    dof rx
    limits (-90.0 20.0)
  end
  begin
     id 11 
     name lowerback
     direction -0.0339559 0.999421 -0.00235966   
     length 1.88543   
     axis 0 0 0   XYZ
    dof rx ry rz
    limits (-20.0 45.0)
           (-30.0 30.0)
           (-30.0 30.0)
  end
  begin
     id 12 
     name upperback
     direction 0.00401003 0.999739 0.0224689   
     length 1.8856   
     axis 0 0 0   XYZ
    dof rx ry rz
    limits (-20.0 45.0)
           (-30.0 30.0)
           (-30.0 30.0)
  end
  begin
     id 13 
     name thorax
     direction 0.0198619 0.999546 0.0226536   
     length 1.88352   
     axis 0 0 0   XYZ
    dof rx ry rz
    limits (-20.0 45.0)
           (-30.0 30.0)
           (-30.0 30.0)
  end
  begin
     id 14 
     name lowerneck
     direction -0.0461848 0.998632 0.0245198   
     length 1.34895   
     axis 0 0 0   XYZ
    dof rx ry rz
    limits (-20.0 45.0)
           (-30.0 30.0)
           (-30.0 30.0)
  end
  begin
     id 15 
     name upperneck
     direction -0.0180627 0.994724 -0.100984   
     length 1.35214   
     axis 0 0 0   XYZ
    dof rx ry rz
    limits (-20.0 45.0)
           (-30.0 30.0)
           (-30.0 30.0)
  end
  begin
     id 16
     name head
     direction -0.00374772 0.999293 -0.037403  
     length 1.3568  
     axis 0 0 0   XYZ
    dof rx ry rz
    limits (-20.0 45.0)
           (-30.0 30.0)
           (-30.0 30.0)
  end
  begin
     id 17 
     name lclavicle
     direction 0.971773 0.191119 0.138311  
     length 2.84954  
     axis 0 0 0   XYZ
    dof ry rz
    limits (-20.0 10.0)
           (0.0 20.0)
  end
  begin
     id 18 
     name lhumerus
     direction 1 -4.4897e-011 -2.43761e-027   
     length 4.40919   
     axis 180 -30 -90   XYZ
    dof rx ry rz
    limits (-60.0 90.0)
           (-90.0 90.0)
           (-90.0 90.0)
  end
  begin
     id 19
     name lradius
     direction 1 -4.4896e-011 -9.1621e-027   
     length 3.03857   
     axis 180 -30 -90   XYZ
    dof rx
    limits (-10.0 170.0)
  end
  begin
     id 20
     name lwrist
     direction 1 -4.4896e-011 -1.41363e-026   
     length 1.51928   
     axis 1.07133e-014 90 90   XYZ
    dof ry
    limits (-180.0 0.0)
 end
  begin
     id 21 
     name lhand
     direction 1 -4.48978e-011 -2.82725e-026   
     length 0.523208   
     axis 1.80403e-014 90 90   XYZ
    dof rx rz
    limits (-90.0 90.0)
           (-45.0 45.0)
  end
  begin
     id 22 
     name lfingers
     direction 1 -4.48977e-011 -5.6545e-026   
     length 0.421824   
     axis 3.60806e-014 90 90   XYZ
    dof rx
    limits (0.0 90.0)
  end
  begin
     id 23
     name lthumb
     direction 0.707107 -6.34962e-011 0.707107   
     length 0.605657   
     axis -90 45 2.85299e-015   XYZ
    dof rx rz
    limits (-45.0 45.0)
           (-45.0 45.0)
  end
  begin
     id 24 
     name rclavicle
     direction -0.957247 0.24311 0.156766   
     length 3.12406  
     axis 0 0 0   XYZ 
    dof ry rz
    limits (-10.0 20.0)
           (-20.0 0.0)
  end
  begin
     id 25 
     name rhumerus
     direction -1 -4.48964e-011 -1.70632e-027  
     length 4.61969   
     axis 180 30 90   XYZ
    dof rx ry rz
    limits (-90.0 60.0)
           (-90.0 90.0)
           (-90.0 90.0)
  end
  begin
     id 26 
     name rradius
     direction -1 -4.48966e-011 -6.60395e-027   
     length 3.09382   
     axis 180 30 90   XYZ
    dof rx
    limits (-10.0 170.0)
  end
  begin
     id 27 
     name rwrist
     direction -1 -4.48963e-011 -1.41363e-026   
     length 1.54691   
     axis 1.07133e-014 -90 -90   XYZ
    dof ry
    limits (-180.0 0.0)
  end
  begin
     id 28
     name rhand
     direction -1 -4.49013e-011 -2.82725e-026   
     length 0.500896   
     axis 1.80403e-014 -90 -90   XYZ
    dof rx rz
    limits (-90.0 90.0)
           (-45.0 45.0)
  end
  begin
     id 29
     name rfingers
     direction -1 -4.48902e-011 -5.6545e-026   
     length 0.403835   
     axis 3.60806e-014 -90 -90   XYZ
    dof rx
    limits (0.0 90.0)
  end
  begin
     id 30
     name rthumb
     direction -0.707107 -6.34953e-011 0.707107   
     length 0.579829   
     axis -90 -45 -2.85299e-015   XYZ
    dof rx rz
    limits (-45.0 45.0)
           (-45.0 45.0)
  end
:hierarchy
  begin
    root lhipjoint rhipjoint lowerback
    lhipjoint lfemur
    lfemur ltibia
    ltibia lfoot
    lfoot ltoes
    rhipjoint rfemur
    rfemur rtibia
    rtibia rfoot
    rfoot rtoes
    lowerback upperback
    upperback thorax
    thorax lowerneck lclavicle rclavicle
    lowerneck upperneck
    upperneck head
    lclavicle lhumerus
    lhumerus lradius
    lradius lwrist
    lwrist lhand lthumb
    lhand lfingers
    rclavicle rhumerus
    rhumerus rradius
    rradius rwrist
    rwrist rhand rthumb
    rhand rfingers
  end

#!OML:ASF E:\madness\Project 1\Capture day 1\Session 1\Female1.ASF
:FULLY-SPECIFIED
:DEGREES
329
root 20.6519 16.4456 -2.53591 -128.784 -78.3319 129.861
lowerback 2.26246 0.209164 -4.63445
upperback -3.72312 -0.0903443 -1.71374
thorax -5.13024 0.0687126 0.827631
lowerneck -1.45582 9.29312 2.25321
upperneck 31.0901 12.1064 -1.58511
head 10.4268 5.15415 0.0694749
rclavicle -4.96962e-016 -3.97569e-015
rhumerus -62.162 -13.7471 -53.4849
rradius 37.8733
rwrist 2.6018
rhand -11.2057 -48.6752
rfingers 7.12502
rthumb 14.8223 -78.125
lclavicle -4.96962e-016 -3.97569e-015
lhumerus -60.1962 21.4507 49.0661
lradius 55.5194
lwrist -5.62826
lhand -29.0586 -7.57641
lfingers 7.12502
lthumb -2.4083 22.3897
rfemur 5.8089 13.306 17.5045
rtibia 6.25368
rfoot -9.56234 -10.7115
rtoes 21.6951
lfemur -58.0156 -2.75508 1.95543
ltibia 56.5935
lfoot 8.23873 3.32225
ltoes 23.9144
330
root 20.6138 16.4405 -2.52072 -129.604 -78.3737 130.65
lowerback 2.28807 0.16398 -4.49185
upperback -3.71839 -0.140089 -1.64682
thorax -5.13638 0.0409315 0.820727
lowerneck -1.67714 9.39379 2.31681
upperneck 31.1743 12.2746 -1.66134
head 10.5162 5.22499 0.0635272
rclavicle 2.62396e-014 -5.1684e-015
rhumerus -62.4666 -13.8769 -52.8384
rradius 37.8566
rwrist 2.65663
rhand -11.1414 -48.7094
rfingers 7.12502
rthumb 14.8842 -78.1547
lclavicle 2.62396e-014 -5.1684e-015
lhumerus -60.2884 21.4656 48.9515
lradius 55.7827
lwrist -5.52016
lhand -28.5662 -8.15462
lfingers 7.12502
lthumb -1.93279 21.8164
rfemur 5.94661 13.2789 17.5752
rtibia 6.31213
rfoot -9.63518 -10.4456
rtoes 21.4244
lfemur -57.4428 -2.74592 2.14229
ltibia 56.1473
lfoot 8.84159 1.94356
ltoes 15.1665
331
root 20.5767 16.4333 -2.50351 -130.37 -78.4342 131.558
lowerback 2.26337 0.132745 -4.26008
upperback -3.9141 -0.178998 -1.61324
thorax -5.32518 0.0172312 0.727875
lowerneck -1.79729 9.47881 2.30141
upperneck 31.4333 12.3558 -1.50873
head 10.6283 5.26196 0.138318
rclavicle 8.10048e-015 -6.75868e-015
rhumerus -62.949 -13.9172 -52.1578
rradius 37.7423
rwrist 2.72419
rhand -10.9023 -48.3079
rfingers 7.12502
rthumb 15.1146 -77.736
lclavicle 8.10048e-015 -6.75868e-015
lhumerus -60.7171 21.082 48.8057
lradius 56.2685
lwrist -5.23653
lhand -28.172 -8.65066
lfingers 7.12502
lthumb -1.552 21.3234
rfemur 5.90664 13.2478 17.6495
rtibia 6.33503
rfoot -9.57158 -10.2439
rtoes 20.9726
lfemur -57.0505 -2.67488 2.35759
ltibia 55.667
lfoot 8.9366 2.03978
ltoes 14.4304
332
root 20.538 16.4312 -2.48648 -131.143 -78.3216 132.483
lowerback 2.17769 0.14158 -4.18603
upperback -4.13877 -0.17241 -1.5915
thorax -5.5129 0.0209748 0.707638
lowerneck -1.4165 9.47285 2.73099
upperneck 31.2774 12.3883 -1.88523
head 10.5585 5.29166 -0.0811798
rclavicle 1.01877e-014 9.93923e-015
rhumerus -63.4826 -13.8886 -51.4677
rradius 37.7314
rwrist 2.78751
rhand -10.79 -47.7741
rfingers 7.12502
rthumb 15.2228 -77.1941
lclavicle 1.01877e-014 9.93923e-015
lhumerus -61.001 21.0073 48.4469
lradius 56.3491
lwrist -5.29193
lhand -28.0008 -9.44698
lfingers 7.12502
lthumb -1.38668 20.5283
rfemur 5.71832 13.329 17.5743
rtibia 6.59849
rfoot -9.63011 -10.1535
rtoes 20.7199
lfemur -56.5338 -2.55798 2.40854
ltibia 55.1973
lfoot 9.04275 2.22176
ltoes 14.6558
333
root 20.5 16.4301 -2.47074 -131.967 -78.2314 133.371
lowerback 2.02238 0.251955 -4.07414
upperback -3.9846 -0.00704173 -1.68802
thorax -5.26786 0.0913424 0.535177
lowerneck -1.86857 9.29527 2.53101
upperneck 31.288 12.1284 -1.71867
head 10.612 5.16628 0.0074436
rclavicle -1.17283e-014 -1.51076e-014
rhumerus -63.8048 -14.5996 -50.8634
rradius 37.8885
rwrist 2.78082
rhand -10.8404 -47.6151
rfingers 7.12502
rthumb 15.1742 -77.0387
lclavicle -1.17283e-014 -1.51076e-014
lhumerus -60.0629 21.5489 48.1702
lradius 55.8032
lwrist -5.73861
lhand -27.8868 -10.043
lfingers 7.12502
lthumb -1.27656 19.9329
rfemur 5.55547 13.3928 17.5416
rtibia 7.02581
rfoot -9.84008 -10.0577
rtoes 20.3258
lfemur -55.9217 -2.51535 2.49309
ltibia 54.7488
lfoot 9.21058 2.94232
ltoes 14.5807
334
root 20.4611 16.4276 -2.45543 -132.923 -78.0747 134.484
lowerback 1.80962 0.267281 -3.9781
upperback -4.169 0.0170907 -1.67884
thorax -5.34056 0.0999673 0.489121
lowerneck -1.12204 9.42292 2.74186
upperneck 30.9287 12.3131 -1.90643
head 10.3692 5.27448 -0.119919
rclavicle 1.8487e-014 5.96354e-015
rhumerus -64.4147 -14.2838 -50.4379
rradius 38.232
rwrist 2.27391
rhand -10.8766 -47.7354
rfingers 7.12502
rthumb 15.1394 -77.1617
lclavicle 1.8487e-014 5.96354e-015
lhumerus -60.7323 20.8566 48.2515
lradius 56.8775
lwrist -5.02117
lhand -28.1386 -8.85777
lfingers 7.12502
lthumb -1.51976 21.1166
rfemur 5.30997 13.5323 17.4679
rtibia 7.42976
rfoot -10.0859 -9.90265
rtoes 19.7857
lfemur -55.3635 -2.41731 2.61593
ltibia 54.285
lfoot 9.41868 2.7676
ltoes 14.6348
335
root 20.4215 16.4278 -2.43918 -133.639 -77.818 135.421
lowerback 1.63028 0.314651 -3.98376
upperback -4.25167 0.0811965 -1.70966
thorax -5.32755 0.130012 0.45652
lowerneck -0.889947 9.6329 2.8298
upperneck 30.7775 12.5853 -1.85016
head 10.2799 5.42614 -0.102672
rclavicle -1.98785e-014 2.54444e-014
rhumerus -64.8306 -14.1249 -50.1468
rradius 38.6905
rwrist 1.71347
rhand -10.9481 -48.2096
rfingers 7.12502
rthumb 15.0705 -77.6411
lclavicle -1.98785e-014 2.54444e-014
lhumerus -60.8157 20.7656 48.1089
lradius 57.2592
lwrist -4.8113
lhand -28.4539 -7.76997
lfingers 7.12502
lthumb -1.82427 22.202
rfemur 4.96875 13.7126 17.2643
rtibia 7.85006
rfoot -10.293 -9.7647
rtoes 19.2835
lfemur -54.8252 -2.38625 2.75634
ltibia 53.7829
lfoot 10.4477 3.10711
ltoes 25.1218
336
root 20.384 16.4214 -2.41907 -133.909 -77.7892 135.795
lowerback 1.5504 0.343324 -3.89594
upperback -4.15593 0.129839 -1.77632
thorax -5.1819 0.146525 0.336625
lowerneck -1.91815 9.59833 2.85015
upperneck 31.2103 12.5566 -1.79294
head 10.6352 5.39597 -0.0223523
rclavicle 3.72721e-015 2.78299e-014
rhumerus -65.1011 -14.5897 -49.673
rradius 39.0477
rwrist 1.55158
rhand -10.9184 -48.5739
rfingers 7.12502
rthumb 15.0991 -78.0032
lclavicle 3.72721e-015 2.78299e-014
lhumerus -60.2324 21.103 47.9113
lradius 57.13
lwrist -4.96964
lhand -28.6078 -7.52549
lfingers 7.12502
lthumb -1.97297 22.4451
rfemur 4.87347 13.657 17.195
rtibia 8.07589
rfoot -10.3998 -9.68226
rtoes 19.1192
lfemur -54.3625 -2.51327 2.90808
ltibia 53.2323
lfoot 10.3225 3.54877
ltoes 24.9937
337
root 20.3414 16.4087 -2.39514 -134.069 -77.8876 136.029
lowerback 1.39881 0.159802 -3.77899
upperback -4.28292 -0.102452 -1.63182
thorax -5.21954 0.0307689 0.43474
lowerneck -1.8469 9.80937 2.32048
upperneck 31.356 12.839 -1.54103
head 10.6258 5.4826 0.17389
rclavicle -1.1778e-014 -3.49861e-014
rhumerus -65.3237 -14.3538 -49.0387
rradius 39.2788
rwrist 1.53469
rhand -10.9177 -48.6739
rfingers 7.12502
rthumb 15.0997 -78.1031
lclavicle -1.1778e-014 -3.49861e-014
lhumerus -60.7294 21.332 47.4988
lradius 57.3038
lwrist -4.95974
lhand -28.5075 -8.4837
lfingers 7.12502
lthumb -1.87606 21.4878
rfemur 4.91424 13.4943 17.2138
rtibia 8.19897
rfoot -10.5847 -9.61204
rtoes 19.2428
lfemur -53.891 -2.56099 2.85956
ltibia 52.6405
lfoot 10.7497 2.59153
ltoes 18.2716
338
root 20.2773 16.411 -2.37305 -133.455 -77.5538 135.339
lowerback 1.13444 0.103646 -4.00307
upperback -4.30697 -0.180913 -1.69906
thorax -5.09228 -0.00439849 0.495035
lowerneck -1.39693 9.84736 2.69604
upperneck 31.1548 12.9307 -1.90226
head 10.5246 5.53788 -0.0307385
rclavicle -4.91992e-015 4.17448e-014
rhumerus -65.7187 -14.1652 -48.4792
rradius 39.6002
rwrist 1.44673
rhand -11.0822 -48.8609
rfingers 7.12502
rthumb 14.9413 -78.302
lclavicle -4.91992e-015 4.17448e-014
lhumerus -61.1354 21.2343 47.2235
lradius 57.6662
lwrist -4.79427
lhand -28.3869 -8.95062
lfingers 7.12502
lthumb -1.75959 21.0219
rfemur 5.25907 13.5028 16.7314
rtibia 8.16282
rfoot -10.881 -9.49576
rtoes 19.3366
lfemur -53.0204 -2.75266 2.30479
ltibia 52.1167
lfoot 11.7421 2.57756
ltoes 20.7412
339
root 20.2312 16.4094 -2.35251 -133.471 -77.3616 135.318
lowerback 1.02377 0.137191 -4.0633
upperback -4.17924 -0.130467 -1.79989
thorax -4.89741 0.0168439 0.422373
lowerneck -1.81883 9.89738 2.93296
upperneck 31.1399 13.0553 -2.09882
head 10.6373 5.60061 -0.0976139
rclavicle -1.7344e-014 6.75868e-015
rhumerus -66.0467 -14.271 -48.2174
rradius 40.1173
rwrist 1.11734
rhand -11.1208 -49.0971
rfingers 7.12502
rthumb 14.9041 -78.5409
lclavicle -1.7344e-014 6.75868e-015
lhumerus -60.9775 21.2021 47.1511
lradius 58.0772
lwrist -4.66741
lhand -28.1931 -8.72981
lfingers 7.12502
lthumb -1.57239 21.2441
rfemur 5.46705 13.5105 16.4914
rtibia 8.16826
rfoot -11.08 -9.37195
rtoes 19.4999
lfemur -52.3357 -2.89278 2.07104
ltibia 51.5565
lfoot 11.2126 2.25182
ltoes 11.8055
340
root 20.1927 16.4085 -2.33507 -133.669 -77.3061 135.449
lowerback 0.927676 0.241006 -4.00469
upperback -3.88925 0.0248908 -1.97953
thorax -4.54399 0.0818207 0.198129
lowerneck -2.09423 9.70325 3.61537
upperneck 30.8819 12.8343 -2.5265
head 10.6694 5.54371 -0.362619
rclavicle 8.74653e-015 2.5842e-014
rhumerus -66.3742 -14.8961 -47.9402
rradius 40.6148
rwrist 0.675124
rhand -11.1633 -49.507
rfingers 7.12502
rthumb 14.8632 -78.9539
lclavicle 8.74653e-015 2.5842e-014
lhumerus -60.1372 21.2434 47.2019
lradius 58.2008
lwrist -4.71521
lhand -27.8607 -9.20897
lfingers 7.12502
lthumb -1.25136 20.7671
rfemur 5.67607 13.4484 16.4212
rtibia 8.18313
rfoot -11.2494 -9.21841
rtoes 19.7366
lfemur -51.6195 -2.9858 1.98249
ltibia 51.0668
lfoot 11.874 3.12478
ltoes 21.7984
341
root 20.155 16.4009 -2.31016 -134.689 -77.0937 136.616
lowerback 0.789535 0.185313 -3.99661
upperback -3.90764 -0.0365994 -1.86114
thorax -4.48223 0.0529968 0.319276
lowerneck -2.04949 9.71363 3.39277
upperneck 30.6229 12.934 -2.75673
head 10.5659 5.54975 -0.404685
rclavicle 3.38928e-014 2.18663e-014
rhumerus -66.2783 -14.8029 -47.4363
rradius 40.7855
rwrist 0.47983
rhand -11.2853 -49.8335
rfingers 7.12502
rthumb 14.7457 -79.289
lclavicle 3.38928e-014 2.18663e-014
lhumerus -60.311 21.7689 46.8061
lradius 58.2087
lwrist -4.91216
lhand -27.6122 -9.98218
lfingers 7.12502
lthumb -1.01138 19.9952
rfemur 5.44953 13.6469 16.286
rtibia 8.41725
rfoot -11.3884 -9.00726
rtoes 19.7534
lfemur -51.0585 -2.81425 1.94824
ltibia 50.5146
lfoot 11.2344 2.45047
ltoes 8.39048
342
root 20.1183 16.3929 -2.28173 -135.916 -76.9152 138.073
lowerback 0.651388 0.164918 -3.92186
upperback -4.25176 -0.0682091 -1.68761
thorax -4.76232 0.0422835 0.456847
lowerneck -1.45358 9.89174 3.18477
upperneck 30.903 13.1281 -2.58146
head 10.5387 5.61879 -0.322932
rclavicle -3.8266e-015 2.06736e-014
rhumerus -66.6816 -14.4357 -46.5059
rradius 40.9044
rwrist 0.700104
rhand -11.0119 -49.5093
rfingers 7.12502
rthumb 15.009 -78.9453
lclavicle -3.8266e-015 2.06736e-014
lhumerus -61.1359 21.6146 46.3995
lradius 58.5692
lwrist -4.96889
lhand -27.5117 -10.1318
lfingers 7.12502
lthumb -0.914264 19.846
rfemur 5.07989 13.8622 16.2089
rtibia 8.7679
rfoot -11.5644 -8.83971
rtoes 19.4669
lfemur -50.607 -2.65337 2.03028
ltibia 49.9815
lfoot 11.4216 2.06818
ltoes 8.6585
